<svg width="16" height="19" viewBox="0 0 16 19" fill="none" xmlns="http://www.w3.org/2000/svg">
<path d="M5.64236 4.39045C5.76152 4.39045 5.86381 4.34775 5.94922 4.26233C6.03464 4.17692 6.07734 4.07463 6.07734 3.95547C6.07734 3.8363 6.03464 3.73401 5.94922 3.6486C5.86381 3.56319 5.76152 3.52048 5.64236 3.52048C5.52319 3.52048 5.42278 3.56319 5.34112 3.6486C5.25945 3.73401 5.21862 3.8363 5.21862 3.95547C5.21862 4.07463 5.25945 4.17692 5.34112 4.26233C5.42278 4.34775 5.52319 4.39045 5.64236 4.39045ZM10.3516 4.39045C10.4707 4.39045 10.5712 4.34775 10.6528 4.26233C10.7345 4.17692 10.7753 4.07463 10.7753 3.95547C10.7753 3.8363 10.7345 3.73401 10.6528 3.6486C10.5712 3.56319 10.4707 3.52048 10.3516 3.52048C10.2324 3.52048 10.1301 3.56319 10.0447 3.6486C9.95931 3.73401 9.9166 3.8363 9.9166 3.95547C9.9166 4.07463 9.95931 4.17692 10.0447 4.26233C10.1301 4.34775 10.2324 4.39045 10.3516 4.39045ZM1.28937 6.44414C1.60186 6.44414 1.86977 6.5558 2.09309 6.77913C2.31642 7.00245 2.42808 7.27036 2.42808 7.58285V12.3821C2.42808 12.7021 2.31829 12.9737 2.09872 13.1971C1.87914 13.4204 1.60936 13.532 1.28937 13.532C0.969378 13.532 0.69772 13.4204 0.474394 13.1971C0.251068 12.9737 0.139404 12.7021 0.139404 12.3821V7.58285C0.139404 7.27036 0.251068 7.00245 0.474394 6.77913C0.69772 6.5558 0.969378 6.44414 1.28937 6.44414ZM13.1196 6.65601V14.0889C13.1196 14.431 13.0007 14.7212 12.7628 14.9595C12.5249 15.1978 12.2384 15.3168 11.9034 15.3164H11.0666V17.85C11.0666 18.17 10.9549 18.4417 10.7316 18.665C10.5082 18.8883 10.2366 19 9.9166 19C9.59661 19 9.32495 18.8883 9.10162 18.665C8.8783 18.4417 8.76663 18.17 8.76663 17.85V15.3164H7.22668V17.85C7.22668 18.17 7.11502 18.4417 6.89169 18.665C6.66837 18.8883 6.39671 19 6.07672 19C5.76423 19 5.49632 18.8883 5.27299 18.665C5.04967 18.4417 4.938 18.17 4.938 17.85L4.92675 15.3164H4.10116C3.75908 15.3164 3.46888 15.1974 3.23056 14.9595C2.99223 14.7216 2.87328 14.4314 2.87369 14.0889V6.65601H13.119H13.1196ZM10.5303 2.13615C11.3266 2.5453 11.9628 3.11633 12.439 3.84922C12.9153 4.58211 13.1534 5.38375 13.1534 6.25414H2.82995C2.82995 5.38375 3.06806 4.58211 3.5443 3.84922C4.02053 3.11633 4.6603 2.5453 5.46361 2.13615L4.67114 0.674318C4.61906 0.577655 4.6376 0.503282 4.72676 0.4512C4.82342 0.406618 4.8978 0.428909 4.94988 0.518073L5.7536 1.99115C6.46025 1.67866 7.20793 1.52242 7.99666 1.52242C8.78538 1.52242 9.53307 1.67866 10.2397 1.99115L11.0434 0.518073C11.0955 0.428909 11.1699 0.406618 11.2666 0.4512C11.3557 0.503282 11.3743 0.577655 11.3222 0.674318L10.5303 2.13615ZM15.8539 7.58223V12.3815C15.8539 12.7014 15.7423 12.9731 15.5189 13.1964C15.2956 13.4198 15.0239 13.5314 14.7039 13.5314C14.3915 13.5314 14.1236 13.4198 13.9002 13.1964C13.6769 12.9731 13.5652 12.7014 13.5652 12.3815V7.58223C13.5652 7.26224 13.6769 6.99246 13.9002 6.77288C14.1236 6.5533 14.3915 6.44351 14.7039 6.44351C15.0239 6.44351 15.2956 6.5533 15.5189 6.77288C15.7423 6.99246 15.8539 7.26224 15.8539 7.58223Z" fill="black"/>
</svg>
