<svg width="18" height="20" viewBox="0 0 18 20" fill="none" xmlns="http://www.w3.org/2000/svg">
<path d="M9.19521 4.62107C9.42616 4.61585 9.65574 4.58406 9.87942 4.52633H9.98468C10.2271 4.44667 10.46 4.34078 10.6794 4.21055H10.7742C10.9855 4.09512 11.1863 3.96126 11.3742 3.81054L11.4478 3.74739C11.6373 3.58652 11.8133 3.4105 11.9742 3.22107L12.0373 3.15791C12.198 2.95937 12.3423 2.74815 12.4689 2.52633V2.45265C12.5945 2.22357 12.7002 1.98409 12.7847 1.73686V1.68423C12.8694 1.43098 12.9293 1.17011 12.9636 0.905281C12.9943 0.632457 12.9943 0.357053 12.9636 0.0842285C11.8566 0.20527 10.8355 0.737672 10.1025 1.57597C9.36945 2.41427 8.97803 3.49731 9.00574 4.61055L9.19521 4.62107ZM14.8794 12.0316C14.6723 11.495 14.5757 10.9222 14.5952 10.3474C14.6095 9.96451 14.6768 9.58547 14.7952 9.22107C14.9172 8.84786 15.0908 8.49355 15.311 8.16844C15.6776 7.62944 16.1504 7.17096 16.7005 6.82107C16.3497 6.32008 15.903 5.8937 15.3862 5.56664C14.8694 5.23959 14.2929 5.01837 13.6899 4.91581C13.4641 4.87169 13.2355 4.84355 13.0057 4.8316H11.7321L11.4268 4.91581L11.1952 4.98949L10.9005 5.09476L10.6899 5.26318L10.3426 5.40002L10.0584 5.51581L9.85837 5.58949L9.61626 5.66318H9.47942C9.371 5.67561 9.26152 5.67561 9.1531 5.66318C9.04813 5.67417 8.94229 5.67417 8.83731 5.66318H8.72153L8.48995 5.60002L8.32153 5.53686L8.07942 5.4737L7.67942 5.31581L7.52152 5.26318L7.23731 5.15791L7.04784 5.09476L6.78468 5.01054H6.58468L6.311 4.95791H6.10047L5.84784 4.88423C5.2012 4.88778 4.56136 5.01646 3.96363 5.26318C2.89859 5.73445 2.00365 6.52094 1.39946 7.51662C0.79528 8.5123 0.510907 9.66929 0.584682 10.8316V11.8842C0.584682 11.9684 0.584682 12.2632 0.658366 12.4527C0.732051 12.6421 0.658366 12.6632 0.721524 12.7684C0.784682 12.8737 0.784682 13.1053 0.826788 13.2737C0.868893 13.4421 0.889945 13.4948 0.921524 13.6C0.953103 13.7053 1.00573 13.9158 1.05837 14.0737C1.111 14.2316 1.14258 14.3053 1.18468 14.4211L1.34258 14.8632L1.48995 15.2C1.5531 15.3369 1.60574 15.4842 1.66889 15.6211L1.82679 15.9369L2.03731 16.3474L2.21626 16.6527L2.43731 17.0316L2.62679 17.3158L2.85837 17.6632L3.05837 17.9263L3.30047 18.2316L3.511 18.4737L3.7531 18.7369L3.97416 18.9474L4.21626 19.1684L4.43731 19.3369L4.67942 19.5158L4.90047 19.6421L5.13205 19.7684L5.34258 19.8421L5.57416 19.9158L5.84784 20H6.08995C6.37603 19.9893 6.65933 19.9397 6.93205 19.8527C7.70356 19.4657 8.54456 19.2367 9.40574 19.179C9.58097 19.1671 9.75681 19.1671 9.93205 19.179H10.1005L10.3847 19.2421L10.5636 19.2948L10.7847 19.3684L10.9742 19.4421L11.2478 19.5579L11.4899 19.6632L11.6478 19.7158L11.8584 19.7895H12.7531C13.4561 19.729 14.1156 19.4235 14.6163 18.9263C15.5867 17.9998 16.3757 16.9003 16.9426 15.6842C17.1209 15.3558 17.2825 15.0185 17.4268 14.6737C16.2639 14.1614 15.3489 13.2124 14.8794 12.0316Z" fill="#2C2C2C"/>
</svg>
