<svg width="20" height="20" viewBox="0 0 20 20" fill="none" xmlns="http://www.w3.org/2000/svg">
<path d="M5.55566 16.6667C5.55566 16.9613 5.67273 17.244 5.8811 17.4523C6.08948 17.6607 6.3721 17.7778 6.66678 17.7778C6.96147 17.7778 7.24409 17.6607 7.45247 17.4523C7.66084 17.244 7.77791 16.9613 7.77791 16.6667C7.77791 16.372 7.66084 16.0894 7.45247 15.881C7.24409 15.6726 6.96147 15.5555 6.66678 15.5555C6.3721 15.5555 6.08948 15.6726 5.8811 15.881C5.67273 16.0894 5.55566 16.372 5.55566 16.6667Z" fill="#323233"/>
<path d="M13.3335 16.6667C13.3335 16.9613 13.4506 17.244 13.6589 17.4523C13.8673 17.6607 14.1499 17.7778 14.4446 17.7778C14.7393 17.7778 15.0219 17.6607 15.2303 17.4523C15.4387 17.244 15.5557 16.9613 15.5557 16.6667C15.5557 16.372 15.4387 16.0894 15.2303 15.881C15.0219 15.6726 14.7393 15.5555 14.4446 15.5555C14.1499 15.5555 13.8673 15.6726 13.6589 15.881C13.4506 16.0894 13.3335 16.372 13.3335 16.6667Z" fill="#323233"/>
<path d="M4.41114 4.45136H16.9043C17.0034 4.45136 17.1022 4.4602 17.1997 4.47776C18.1056 4.64088 18.7078 5.5075 18.5446 6.4134L17.3444 13.0787C17.2015 13.8725 16.5107 14.45 15.7041 14.45H5.92574C5.07872 14.45 4.3664 13.8147 4.2699 12.9732L3.22118 3.82732C3.18902 3.54682 2.95158 3.33506 2.66924 3.33506H1.11122C0.804384 3.33506 0.555664 3.08632 0.555664 2.7795C0.555664 2.47268 0.804384 2.22394 1.11122 2.22394H2.66924C3.51626 2.22394 4.22858 2.85924 4.32506 3.70074L4.41114 4.45136Z" fill="#323233"/>
</svg>
