<svg width="22" height="18" viewBox="0 0 22 18" fill="none" xmlns="http://www.w3.org/2000/svg">
<path d="M21.1691 0.395569H0.831295C0.398628 0.395569 0.0490723 0.745125 0.0490723 1.17779V5.0889H21.9513V1.17779C21.9513 0.745125 21.6017 0.395569 21.1691 0.395569ZM0.0490723 16.8222C0.0490723 17.2549 0.398628 17.6045 0.831295 17.6045H21.1691C21.6017 17.6045 21.9513 17.2549 21.9513 16.8222V7.24001H0.0490723V16.8222ZM14.2024 12.3245C14.2024 12.2169 14.2904 12.1289 14.398 12.1289H18.4313C18.5389 12.1289 18.6269 12.2169 18.6269 12.3245V14.0845C18.6269 14.192 18.5389 14.28 18.4313 14.28H14.398C14.2904 14.28 14.2024 14.192 14.2024 14.0845V12.3245Z" fill="#333303"/>
</svg>
