<svg width="20" height="20" viewBox="0 0 20 20" fill="none" xmlns="http://www.w3.org/2000/svg">
<path d="M6.25 9.375H13.75V8.125H6.25V9.375ZM6.25 11.875H11.25V10.625H6.25V11.875ZM6.25 14.375H11.25V13.125H6.25V14.375Z" fill="#181818"/>
<path d="M16.25 3.125H13.75V1.875H6.25V3.125H3.75C3.375 3.125 3.125 3.375 3.125 3.75V17.5C3.125 17.875 3.375 18.125 3.75 18.125H16.25C16.625 18.125 16.875 17.875 16.875 17.5V3.75C16.875 3.375 16.625 3.125 16.25 3.125ZM7.5 3.125H12.5V4.375H7.5V3.125ZM15.625 16.875H4.375V4.375H6.25V5.625H13.75V4.375H15.625V16.875Z" fill="#181818"/>
</svg>
