<svg width="24" height="24" viewBox="0 0 24 24" fill="none" xmlns="http://www.w3.org/2000/svg">
<path d="M9.33334 18.6665C7.48738 18.6665 5.68288 18.1191 4.14802 17.0935C2.61316 16.068 1.41688 14.6103 0.710462 12.9049C0.00404401 11.1994 -0.180787 9.3228 0.179342 7.51231C0.53947 5.70182 1.42838 4.03878 2.73367 2.73349C4.03897 1.4282 5.70201 0.539287 7.5125 0.179158C9.32299 -0.18097 11.1996 0.00386091 12.9051 0.710279C14.6105 1.4167 16.0682 2.61297 17.0937 4.14783C18.1193 5.68269 18.6667 7.4872 18.6667 9.33315C18.6639 11.8076 17.6796 14.18 15.9299 15.9297C14.1802 17.6794 11.8078 18.6637 9.33334 18.6665ZM9.33334 2.66649C8.0148 2.66649 6.72587 3.05748 5.62954 3.79002C4.53321 4.52257 3.67873 5.56376 3.17414 6.78193C2.66956 8.00011 2.53753 9.34055 2.79477 10.6338C3.052 11.927 3.68694 13.1148 4.61929 14.0472C5.55164 14.9795 6.73953 15.6145 8.03274 15.8717C9.32594 16.129 10.6664 15.9969 11.8846 15.4924C13.1027 14.9878 14.1439 14.1333 14.8765 13.037C15.609 11.9406 16 10.6517 16 9.33315C15.9979 7.56569 15.2948 5.87123 14.045 4.62145C12.7953 3.37166 11.1008 2.6686 9.33334 2.66649ZM21.724 23.6092L17.724 19.6092C17.4811 19.3577 17.3467 19.0209 17.3498 18.6713C17.3528 18.3217 17.493 17.9873 17.7402 17.7401C17.9875 17.4929 18.3219 17.3526 18.6715 17.3496C19.0211 17.3466 19.3579 17.4809 19.6093 17.7238L23.6093 21.7238C23.8522 21.9753 23.9866 22.3121 23.9836 22.6617C23.9805 23.0113 23.8403 23.3457 23.5931 23.5929C23.3459 23.8401 23.0115 23.9803 22.6619 23.9834C22.3123 23.9864 21.9755 23.852 21.724 23.6092Z" fill="#2C2C2C"/>
</svg>
